<svg xmlns="http://www.w3.org/2000/svg" viewBox="0 0 502 502">
    <path d="M143.4 192.8c-1.8 0.2-4.6-0.1-8.6-1 4.1 8.2 4.7 16.5 1.7 24.9 -2.7 7.5-6.9 12.8-12.9 16.1 -5.9 3.3-12.1 3.8-18.6 1.4 -7.9-2.8-12.9-8-15.1-15.5 -2.2-7.5-1.4-16.7 2.5-27.6l4.5-12.6 -5.9-2.1c-4.5-1.6-8.6-1.5-12.2 0.2 -3.6 1.8-6.4 5.3-8.3 10.5 -1.6 4.6-1.9 8.9-0.6 12.9 1.2 4 3.5 6.5 6.8 7.7l-4.6 13c-3.8-1.3-6.9-4-9.5-7.9 -2.6-3.9-4-8.6-4.5-13.9 -0.4-5.3 0.4-10.7 2.3-16.2 3.1-8.7 7.7-14.8 13.9-18.1 6.1-3.4 13-3.8 20.7-1.3l34.8 12.4c6.9 2.5 12.8 3.6 17.5 3.3l1.1 0.4L143.4 192.8zM125.8 210.7c1.5-4 1.8-8.3 1-12.7 -0.8-4.4-2.6-8-5.4-10.8l-15.5-5.5 -3.6 10.1c-5.7 15.8-3.8 25.4 5.4 28.7 4.1 1.5 7.7 1.2 11-0.7C121.9 218 124.3 215 125.8 210.7z"/>
    <path d="M186.9 148.2l-11.2 7.9 -65.7-93.1 11.2-7.9L186.9 148.2z"/>
    <path d="M208.4 32.4c-0.3-2.2 0-4.2 1.1-5.9 1.1-1.7 3-2.8 5.6-3.2 2.6-0.4 4.8 0 6.4 1.3 1.6 1.3 2.6 3.1 2.9 5.3 0.4 2.2 0 4.1-1.2 5.8 -1.1 1.7-3 2.7-5.7 3.2s-4.7 0-6.3-1.3C209.7 36.3 208.8 34.6 208.4 32.4zM238.9 130.5l-13.6 2.1 -12.5-79.3 13.6-2.1L238.9 130.5z"/>
    <path d="M328.1 130.1c1.6-3.3 1.6-6.6-0.1-9.6 -1.6-3-5.3-6.7-10.9-11 -5.6-4.3-9.9-8.3-12.7-11.9s-4.5-7.1-5-10.6c-0.5-3.4 0-6.9 1.7-10.5 2.8-5.9 7.7-9.8 14.7-11.5 7-1.7 14.4-0.7 22.2 3 8.2 3.9 13.9 9.2 17 15.9 3.1 6.7 3.1 13.3 0 19.9l-12.5-5.9c1.6-3.4 1.6-7-0.2-10.8 -1.7-3.8-4.8-6.8-9.1-8.8 -4.5-2.1-8.5-2.8-12-2.1 -3.5 0.8-6 2.7-7.5 5.9 -1.4 3-1.3 5.8 0.4 8.5 1.7 2.6 5.2 6.1 10.8 10.4 5.5 4.3 9.8 8.4 12.7 12.1 2.9 3.7 4.7 7.4 5.3 11 0.6 3.6-0.1 7.3-1.9 11.2 -3.1 6.5-8.1 10.5-15.2 11.9 -7 1.5-14.7 0.2-23-3.7 -5.8-2.7-10.5-6.2-14-10.4 -3.5-4.2-5.6-8.7-6.4-13.6 -0.8-4.9-0.1-9.5 1.9-13.8l12.4 5.9c-1.7 4.3-1.6 8.4 0.3 12.3 2 3.9 5.5 7.1 10.6 9.5 4.7 2.2 8.9 3.1 12.7 2.5C324 135.1 326.6 133.3 328.1 130.1z"/>
    <path d="M370.4 224.1c1.2-1.3 3.6-2.9 7.2-4.9 -8.5-3.5-14.4-9.4-17.6-17.6 -2.9-7.4-3.2-14.2-0.9-20.6 2.3-6.4 6.7-10.8 13.1-13.3 7.8-3.1 15-2.5 21.6 1.8 6.6 4.2 12.1 11.7 16.3 22.4l4.9 12.4 5.9-2.3c4.5-1.7 7.5-4.5 9.1-8.2s1.4-8.2-0.7-13.4c-1.8-4.6-4.4-7.9-8-10.1 -3.5-2.2-6.9-2.6-10.2-1.3l-5-12.8c3.7-1.5 7.9-1.6 12.4-0.3 4.5 1.3 8.7 3.8 12.5 7.5 3.8 3.7 6.8 8.3 8.9 13.8 3.4 8.6 3.9 16.2 1.5 22.8 -2.4 6.6-7.3 11.4-14.8 14.6l-34.4 13.5c-6.9 2.7-12 5.7-15.3 9.1l-1.1 0.4L370.4 224.1zM371.8 199.1c1.6 4 4.1 7.4 7.6 10.2s7.2 4.3 11.2 4.6l15.3-6 -3.9-10c-6.1-15.7-13.8-21.7-23-18.1 -4 1.6-6.6 4.1-7.8 7.7C370 191 370.2 194.9 371.8 199.1z"/>
    <path d="M384.4 346.7c-11.2-4.8-19.2-11.2-23.9-19.3 -4.7-8.1-5.1-16.5-1.4-25.3 3.8-9 9.7-14.8 17.6-17.5l-35.5-15.2 5.4-12.6 102.2 43.7 -4.9 11.5 -8.4-2.9c4.2 7.9 4.3 16.4 0.4 25.5 -3.8 8.9-10.1 14.5-19 16.8 -8.9 2.3-19.3 0.9-31.2-4.2L384.4 346.7zM391.2 334.7c8.3 3.6 15.7 4.6 22 3.1 6.3-1.5 10.8-5.3 13.5-11.5 3.3-7.6 2.3-14.8-2.8-21.5l-35.3-15.1c-8.3 0.9-14.2 5.2-17.5 13 -2.6 6.1-2.2 11.9 1 17.5C375.4 325.8 381.7 330.6 391.2 334.7z"/>
    <path d="M344.4 388.2c2.9 7.3 4 14.5 3.5 21.5 -0.6 7-2.8 13.1-6.7 18.3 -3.9 5.2-9.1 9.1-15.7 11.7 -10.2 4-19.8 3.7-28.8-0.8 -9.1-4.6-15.9-12.7-20.5-24.4l-0.3-0.9c-2.9-7.3-4-14.3-3.5-21.2 0.5-6.9 2.7-12.9 6.6-18.2 3.9-5.3 9.2-9.2 15.9-11.9 10.1-4 19.7-3.7 28.8 0.9 9.1 4.6 15.9 12.7 20.5 24.3L344.4 388.2zM330.9 391.7c-3.3-8.3-7.8-14.2-13.6-17.7 -5.8-3.5-11.9-4-18.4-1.4 -6.5 2.6-10.6 7.1-12.5 13.7 -1.8 6.6-0.9 14.5 2.7 23.6 3.2 8.2 7.8 14.1 13.7 17.6 5.9 3.6 12.1 4.1 18.5 1.5 6.3-2.5 10.4-7 12.3-13.5C335.5 409 334.6 401.1 330.9 391.7z"/>
    <path d="M218.2 413.7c-3.2 7.2-7.5 13-12.9 17.5 -5.4 4.5-11.3 7.1-17.7 8 -6.4 0.9-12.9-0.2-19.3-3 -10-4.5-16.5-11.5-19.6-21.2s-2-20.2 3.1-31.7l0.4-0.9c3.2-7.1 7.4-12.9 12.7-17.4 5.3-4.4 11.2-7.1 17.7-8 6.5-0.9 13 0.2 19.6 3.1 9.9 4.5 16.4 11.5 19.5 21.2 3.1 9.7 2.1 20.2-3 31.6L218.2 413.7zM206.3 406.6c3.6-8.1 4.7-15.5 3.1-22.1 -1.6-6.6-5.5-11.3-11.8-14.2 -6.4-2.8-12.5-2.6-18.5 0.7 -6 3.3-11 9.5-15 18.4 -3.6 8-4.6 15.4-3 22.1 1.6 6.7 5.5 11.5 11.9 14.3 6.2 2.8 12.3 2.6 18.3-0.7C197.1 421.9 202.2 415.7 206.3 406.6z"/>
    <path d="M69.4 339.8l9.3-4c-9.4-3-15.8-9.1-19.4-18.4 -6-15.9-0.1-27.3 17.7-34.2l49.6-18.8 4.9 12.8 -49.7 18.9c-5.4 2.1-8.9 4.9-10.6 8.3 -1.7 3.4-1.5 7.7 0.4 12.8 1.6 4.2 4.1 7.4 7.5 9.7 3.4 2.3 7.3 3.7 11.5 4l53.5-20.3 4.9 12.8 -75.1 28.5L69.4 339.8z"/>
</svg>
